# xmcd CD database file
#
# Track frame offsets:
#	225
#	3161
#	18937
#	19728
#	39834
#	40629
#	49915
#	50643
#	68307
#	69223
#	89889
#	90351
#	107356
#	107914
#	123514
#	126692
#	129682
#	146795
#	147977
#	159287
#	160790
#	175477
#	176452
#	190290
#	191096
#	211409
#	212184
#	229809
#	230331
#	250818
#
# Disc length: 3422 seconds
#
# Revision: 0
# Processed by: cddbd v1.5.2PL0 Copyright (c) Steve Scherf et al.
# Submitted via: CDex 1.51
#
DISCID=a40d5b1e
DTITLE=Various Artist - BBC Jazz Club Volume Two
DYEAR=2015
DGENRE=Jazz
TTITLE0=David Jacobs spoken introduction and Theme
TTITLE1=Tony Crombie Band - East Of The Sun
TTITLE2=Spoken introduction
TTITLE3=Tony Crombie Band - Baby Blue
TTITLE4=Spoken introduction
TTITLE5=Eddie Thompson Trio - People Will Say We're In Love
TTITLE6=Spoken introduction
TTITLE7=Eddie Thompson Trio - Just In Time
TTITLE8=Spoken introduction
TTITLE9=Tony Crombie Band - Summertime
TTITLE10=Spoken introduction
TTITLE11=Eddie Thompson Trio - Three For Three Four
TTITLE12=Spoken introduction
TTITLE13=Eddie Thompson Trio - Will You Still Be Mine
TTITLE14=Spoken sign off  and Theme 'Time's a Wasting'
TTITLE15=Spoken introduction
TTITLE16=Mike Daniels and His Delta Jazzmen - Steamboat Stomp
TTITLE17=Spoken introduction
TTITLE18=Lennie Felix Trio - Rose Room
TTITLE19=Spoken introduction
TTITLE20=Mike Daniels and His Delta Jazzmen - King Porter Stomp
TTITLE21=Spoken introduction
TTITLE22=Mike Daniels and His Delta Jazzmen - A Good Man Is Hard To Find
TTITLE23=Spoken introduction
TTITLE24=Lennie Felix Trio - Struttin' With Some Barbecue
TTITLE25=Spoken introduction
TTITLE26=Lennie Felix Trio - Body And Soul
TTITLE27=Spoken introduction
TTITLE28=Mike Daniels and His Delta Jazzmen - Chattanooga Stomp
TTITLE29=Spoken sign off  and Theme 'Time's a Wasting'
EXTD=YEAR: 2015
EXTT0=
EXTT1=
EXTT2=
EXTT3=
EXTT4=
EXTT5=
EXTT6=
EXTT7=
EXTT8=
EXTT9=
EXTT10=
EXTT11=
EXTT12=
EXTT13=
EXTT14=
EXTT15=
EXTT16=
EXTT17=
EXTT18=
EXTT19=
EXTT20=
EXTT21=
EXTT22=
EXTT23=
EXTT24=
EXTT25=
EXTT26=
EXTT27=
EXTT28=
EXTT29=
PLAYORDER=
